<svg xmlns="http://www.w3.org/2000/svg" width="24" height="24" viewBox="0 0 24 24"><defs><style>.a{fill:none;}.b{fill:#222;}</style></defs><g transform="translate(-746 -65)"><rect class="a" width="24" height="24" transform="translate(746 65)"/><g transform="translate(749.999 66)"><path class="b" d="M-253.3-412.493h-1.364v-2.939a5.187,5.187,0,0,0-5.136-5.19,5.187,5.187,0,0,0-5.136,5.19v2.939H-266.3v-2.939A6.533,6.533,0,0,1-259.8-422a6.533,6.533,0,0,1,6.5,6.568v2.939" transform="translate(267.8 422)"/><path class="b" d="M-255.782-389.672h-11.636a2.224,2.224,0,0,1-2.182-2.2V-400.7a2.224,2.224,0,0,1,2.182-2.2h11.636a2.224,2.224,0,0,1,2.182,2.2v8.818a2.194,2.194,0,0,1-2.182,2.2Zm-11.636-11.758a.722.722,0,0,0-.727.735v8.818a.722.722,0,0,0,.727.735h11.636a.722.722,0,0,0,.727-.735V-400.7a.722.722,0,0,0-.727-.735Z" transform="translate(269.6 411.672)"/><path class="b" d="M-252.291-395.03a1.444,1.444,0,0,1-1.455,1.47,1.444,1.444,0,0,1-1.455-1.47,1.444,1.444,0,0,1,1.455-1.47,1.472,1.472,0,0,1,1.455,1.47" transform="translate(261.746 408.212)"/><path class="b" d="M-252.945-393.3h-.727l-.727,4.409h2.182l-.727-4.409" transform="translate(261.309 406.482)"/></g></g></svg>